# xmcd
#
# Track frame offsets: 
#        150
#        18290
#        38625
#        56527
#        82570
#        106092
#        130687
#        146782
#        172697
#        196122
#        216027
#        236545
#        261885
#
# Disc length: 3708 seconds
#
# Revision: 3
# Processed by: cddbd v1.5.2PL0 Copyright (c) Steve Scherf et al.
# Submitted via: ExactAudioCopy v1.0b3
#
DISCID=980e7a0d
DTITLE=Myron - Destiny
DYEAR=1998
DGENRE=Soul
TTITLE0=We Can Get Down
TTITLE1=So Fly
TTITLE2=Destiny
TTITLE3=Come Around
TTITLE4=See You Cry
TTITLE5=So Damn Much
TTITLE6=Heavenly Girl
TTITLE7=Give My All To You
TTITLE8=Hit It
TTITLE9=Eastside Girl
TTITLE10=You're My Everything
TTITLE11=Angel
TTITLE12=Destiny (Remix)
EXTD=YEAR: 1998
EXTT0=
EXTT1=
EXTT2=
EXTT3=
EXTT4=
EXTT5=
EXTT6=
EXTT7=
EXTT8=
EXTT9=
EXTT10=
EXTT11=
EXTT12=
PLAYORDER=
